<?xml version="1.0" encoding="UTF-8" standalone="no"?>
<!-- Created with Inkscape (http://www.inkscape.org/) -->

<svg
   width="512"
   height="128"
   viewBox="0 0 135.46666 33.866666"
   version="1.1"
   id="svg1"
   inkscape:version="1.3.2 (091e20e, 2023-11-25, custom)"
   sodipodi:docname="Cruise118 Logo.svg"
   xmlns:inkscape="http://www.inkscape.org/namespaces/inkscape"
   xmlns:sodipodi="http://sodipodi.sourceforge.net/DTD/sodipodi-0.dtd"
   xmlns="http://www.w3.org/2000/svg"
   xmlns:svg="http://www.w3.org/2000/svg">
  <sodipodi:namedview
     id="namedview1"
     pagecolor="#ffffff"
     bordercolor="#666666"
     borderopacity="1.0"
     inkscape:showpageshadow="2"
     inkscape:pageopacity="0.0"
     inkscape:pagecheckerboard="true"
     inkscape:deskcolor="#d1d1d1"
     inkscape:document-units="mm"
     inkscape:lockguides="false"
     inkscape:zoom="0.51213161"
     inkscape:cx="-116.18107"
     inkscape:cy="-178.66501"
     inkscape:window-width="1920"
     inkscape:window-height="1009"
     inkscape:window-x="-8"
     inkscape:window-y="-8"
     inkscape:window-maximized="1"
     inkscape:current-layer="layer1" />
  <defs
     id="defs1" />
  <g
     inkscape:label="Capa 1"
     inkscape:groupmode="layer"
     id="layer1">
    <path
       id="path1"
       style="fill:#000000;fill-opacity:1;stroke:none;stroke-width:0.264583px;stroke-linecap:butt;stroke-linejoin:miter;stroke-opacity:1"
       d="m 25.741333,5.441233 c -0.169648,0.00325 -0.335824,0.099586 -0.37052,0.3260783 l -0.03256,1.8727539 0.968933,0.064596 -0.0646,-1.1622029 0.774629,0.032039 c 0.35765,0.011142 0.748269,-0.8093845 0,-0.8392253 h -0.871781 c -0.0154,-0.1815745 -0.211842,-0.2977191 -0.40411,-0.2940389 z m -1.210262,3.2323612 -2.260327,0.90382 1.033529,1.7115248 1.678967,-0.6134 8.491988,-0.03256 C 33.346692,9.9614472 33.462248,9.2545222 31.764221,8.7381892 Z m -8.362796,0.322977 c -0.484169,0.113879 -1.524538,0.929412 -1.065568,2.1311368 L 17.58886,10.19133 C 18.430418,9.1243842 17.45073,9.0439982 16.168275,8.9965712 Z m 5.036901,0.903821 c 0,0 -6.468553,2.3698438 -6.586677,2.4220758 -0.893328,0.395005 -1.214081,1.335976 -1.000973,2.356961 l 8.653218,-3.132108 z m 13.012642,1.6789678 -8.976196,0.03256 -1.48518,0.548803 0.90382,1.711524 9.880534,-1.90531 z m -11.559501,0.839742 -9.719302,3.487126 c -1.933439,0.708403 -1.398775,2.249847 -1.323434,2.357478 L 23.723885,14.19522 Z m 15.248682,0.258899 c -0.346417,-0.0093 -0.755873,0.01123 -1.235067,0.06408 l -12.221476,2.260325 c -11.323923,4.45888 -17.5352024,3.163979 -11.753287,9.056812 l -2.08256,-0.01602 c -0.261244,0.05404 -0.394858,0.164823 -0.454236,0.287838 0.0025,0.0029 0.0059,0.0059 0.0083,0.0088 0.811097,0.743185 2.258115,0.171882 2.284615,0.05374 0.406809,-0.449246 0.594668,-0.214891 0.806152,-0.05374 0.703079,0.423248 0.794498,0.331114 1.048515,0.376205 0.07536,0.004 0.140547,0.01465 0.197404,0.02997 0.547937,-0.03857 1.01552,-0.242045 1.030428,-0.308509 0.406809,-0.449244 0.594668,-0.21489 0.806153,-0.05374 0.534996,0.322063 0.715932,0.345842 0.883667,0.358634 0.001,-2.38e-4 0.0016,-8.02e-4 0.0026,-10e-4 0.751235,0.05242 1.094897,-0.23396 1.207677,-0.346232 0.259528,-0.431277 0.581959,-0.207003 0.727087,-0.02997 0.811099,0.743187 2.258632,0.171883 2.285132,0.05374 0.40681,-0.449247 0.594668,-0.214891 0.806153,-0.05374 0.517774,0.311699 0.703131,0.343736 0.866613,0.357084 0.261913,-0.08213 0.411173,-0.207349 0.477491,-0.273368 0.259523,-0.431272 0.582472,-0.207002 0.727604,-0.02997 0.811094,0.743182 2.258115,0.171882 2.284615,0.05374 0.406805,-0.449242 0.594667,-0.21489 0.806152,-0.05374 0.629017,0.37866 0.769329,0.345416 0.973584,0.366386 0.408034,-0.06593 0.619346,-0.244034 0.7028,-0.327112 0.259522,-0.431277 0.581955,-0.207002 0.727087,-0.02997 0.811093,0.743181 2.258632,0.171882 2.285132,0.05374 0.40681,-0.449247 0.594667,-0.21489 0.806152,-0.05374 0.62387,0.37556 0.766335,0.345928 0.9679,0.365869 0.208698,-0.08045 0.331975,-0.185479 0.390674,-0.243913 0.259521,-0.431277 0.582472,-0.207002 0.727604,-0.02997 0.811092,0.74318 2.258115,0.171882 2.284615,0.05374 0.406803,-0.44924 0.594667,-0.21489 0.806152,-0.05374 0.600911,0.361738 0.755043,0.347035 0.945679,0.363285 0.48778,-0.21493 0.214649,-0.904854 -0.392224,-0.904854 l -4.520654,-0.0646 c 0.01181,-4.279445 8.982004,-11.097242 3.785815,-11.236007 z M 27.3278,16.386302 a 0.77629155,0.77629155 0 0 1 0.77618,0.77618 0.77629155,0.77629155 0 0 1 -0.77618,0.77618 0.77629155,0.77629155 0 0 1 -0.77618,-0.77618 0.77629155,0.77629155 0 0 1 0.77618,-0.77618 z m -2.482019,0.784448 a 0.77629155,0.77629155 0 0 1 0.776696,0.77618 0.77629155,0.77629155 0 0 1 -0.776696,0.77618 0.77629155,0.77629155 0 0 1 -0.77618,-0.77618 0.77629155,0.77629155 0 0 1 0.77618,-0.77618 z m -2.438611,0.766879 a 0.77629155,0.77629155 0 0 1 0.77618,0.77618 0.77629155,0.77629155 0 0 1 -0.77618,0.77618 0.77629155,0.77629155 0 0 1 -0.776697,-0.77618 0.77629155,0.77629155 0 0 1 0.776697,-0.77618 z m -2.487704,0.719852 a 0.77629155,0.77629155 0 0 1 0.77618,0.77618 0.77629155,0.77629155 0 0 1 -0.77618,0.77618 0.77629155,0.77629155 0 0 1 -0.77618,-0.77618 0.77629155,0.77629155 0 0 1 0.77618,-0.77618 z m -2.368846,0.737422 a 0.77629155,0.77629155 0 0 1 0.776179,0.776181 0.77629155,0.77629155 0 0 1 -0.776179,0.77618 0.77629155,0.77629155 0 0 1 -0.776697,-0.77618 0.77629155,0.77629155 0 0 1 0.776697,-0.776181 z m -2.51716,0.865065 a 0.77629155,0.77629155 0 0 1 0.77618,0.77618 0.77629155,0.77629155 0 0 1 -0.77618,0.77618 0.77629155,0.77629155 0 0 1 -0.77618,-0.77618 0.77629155,0.77629155 0 0 1 0.77618,-0.77618 z m 3.77703,4.601786 c -0.01588,0.0143 -0.03268,0.02723 -0.04909,0.04082 h 0.09198 c -0.01431,-0.01376 -0.02865,-0.02648 -0.04289,-0.04082 z m 10.657231,0.06304 c -6.42e-4,5.78e-4 -0.0014,9.72e-4 -0.0021,0.0016 h 0.0041 c -6.17e-4,-6.2e-4 -0.0014,-9.28e-4 -0.0021,-0.0016 z M 17.652939,25.43071 c -0.117565,-0.0034 -0.243024,0.05988 -0.356568,0.248564 -0.112779,0.112272 -0.456956,0.39865 -1.208195,0.346232 -0.3795,0.08623 -0.295655,0.622678 0.04599,0.664042 0.167626,0.0097 1.006481,-0.06648 1.536858,-0.544153 1.136406,1.144589 2.500426,0.415163 3.121255,0.09508 0.574302,0.342875 1.077715,0.545823 1.398881,0.45837 0.538019,-0.0069 0.698675,-0.634615 -0.02842,-0.673344 -0.254017,-0.04509 -0.344918,0.04705 -1.047998,-0.376204 -0.211484,-0.161147 -0.399859,-0.395503 -0.806669,0.05374 -0.0265,0.118139 -1.473516,0.689443 -2.284614,-0.05374 -0.08164,-0.09958 -0.219365,-0.214206 -0.37052,-0.218592 z m 11.772924,0.199988 c -0.117565,-0.0034 -0.243541,0.05988 -0.357084,0.248565 -0.11278,0.112272 -0.45644,0.39865 -1.207678,0.346232 -0.379501,0.08623 -0.295656,0.622678 0.04599,0.664042 0.167625,0.0097 1.005963,-0.06648 1.53634,-0.544154 1.136406,1.144589 2.500427,0.415163 3.121256,0.09509 0.574302,0.342874 1.078231,0.545823 1.399398,0.45837 0.538019,-0.0069 0.698674,-0.634615 -0.02842,-0.673344 -0.254018,-0.04509 -0.345435,0.04704 -1.048515,-0.376205 -0.211484,-0.161146 -0.399342,-0.395503 -0.806152,0.05374 -0.0265,0.118139 -1.473517,0.689443 -2.284615,-0.05374 -0.08164,-0.09958 -0.219365,-0.214205 -0.37052,-0.218591 z m -17.659387,1.226799 c -0.117564,-0.0034 -0.243024,0.05988 -0.356567,0.248563 -0.11278,0.112273 -0.456957,0.39865 -1.208195,0.346233 -0.3795006,0.08623 -0.2956556,0.622679 0.04599,0.664042 0.167626,0.0097 1.006481,-0.06596 1.536857,-0.543637 1.136406,1.144589 2.500427,0.414647 3.121257,0.09457 0.574301,0.342874 1.078231,0.54634 1.399397,0.458887 0.538019,-0.0069 0.698158,-0.635132 -0.02894,-0.673861 -0.254017,-0.04509 -0.344918,0.04705 -1.047998,-0.376204 -0.211484,-0.161147 -0.399859,-0.395504 -0.806669,0.05374 -0.0265,0.118139 -1.473517,0.689443 -2.284615,-0.05374 -0.08164,-0.09958 -0.219365,-0.214205 -0.37052,-0.218591 z m 11.772924,0.05839 c -0.117564,-0.0034 -0.24354,0.05988 -0.357084,0.248564 -0.11278,0.112272 -0.45644,0.39865 -1.207678,0.346232 -0.3795,0.08623 -0.295656,0.622678 0.04599,0.664042 0.167626,0.0097 1.005964,-0.06596 1.53634,-0.543636 1.136406,1.144589 2.500428,0.414645 3.121257,0.09457 0.574301,0.342874 1.078231,0.546339 1.399398,0.458886 0.538018,-0.0069 0.698674,-0.635131 -0.02842,-0.67386 -0.254018,-0.04509 -0.345436,0.04704 -1.048515,-0.376205 -0.211485,-0.161147 -0.399343,-0.395503 -0.806152,0.05374 -0.0265,0.118139 -1.473517,0.689443 -2.284615,-0.05374 -0.08164,-0.09958 -0.219366,-0.214205 -0.370521,-0.218591 z m 11.772409,0.464571 c -0.117565,-0.0034 -0.243024,0.05988 -0.356568,0.248564 -0.11278,0.112272 -0.45644,0.39865 -1.207678,0.346232 -0.379501,0.08623 -0.296172,0.622678 0.04547,0.664042 0.167626,0.0097 1.006481,-0.06596 1.536857,-0.543636 1.136406,1.144589 2.500427,0.414646 3.121257,0.09457 0.574301,0.342874 1.078231,0.546339 1.399398,0.458887 0.538018,-0.0069 0.698674,-0.635132 -0.02842,-0.673861 -0.254018,-0.04509 -0.345436,0.04705 -1.048515,-0.376205 -0.211485,-0.161145 -0.399343,-0.395503 -0.806153,0.05374 -0.0265,0.118139 -1.473516,0.689443 -2.284615,-0.05374 -0.08164,-0.09958 -0.219882,-0.214204 -0.371036,-0.218591 z" />
    <text
       xml:space="preserve"
       style="font-size:16.4711px;line-height:1.25;font-family:sans-serif;stroke-width:0.343148"
       x="48.192299"
       y="23.066076"
       id="text1"><tspan
         sodipodi:role="line"
         style="font-style:normal;font-variant:normal;font-weight:normal;font-stretch:normal;font-size:16.4711px;font-family:sans-serif;-inkscape-font-specification:sans-serif;stroke-width:0.343148"
         x="48.192299"
         y="23.066076"
         id="tspan2">Cruise118</tspan></text>
    <rect
       style="fill:#000000;stroke-width:0.0580187"
       id="rect3"
       width="0.89915496"
       height="21.532921"
       x="44.265038"
       y="6.3119531"
       ry="0.44957748" />
  </g>
</svg>
