<?xml version="1.0" encoding="UTF-8" standalone="no"?>
<!-- Created with Inkscape (http://www.inkscape.org/) -->

<svg
   width="128"
   height="128"
   viewBox="0 0 33.866666 33.866666"
   version="1.1"
   id="svg1"
   xml:space="preserve"
   inkscape:version="1.3.2 (091e20e, 2023-11-25, custom)"
   sodipodi:docname="Ship.svg"
   xmlns:inkscape="http://www.inkscape.org/namespaces/inkscape"
   xmlns:sodipodi="http://sodipodi.sourceforge.net/DTD/sodipodi-0.dtd"
   xmlns="http://www.w3.org/2000/svg"
   xmlns:svg="http://www.w3.org/2000/svg"><sodipodi:namedview
     id="namedview1"
     pagecolor="#ffffff"
     bordercolor="#666666"
     borderopacity="1.0"
     inkscape:showpageshadow="2"
     inkscape:pageopacity="0.0"
     inkscape:pagecheckerboard="true"
     inkscape:deskcolor="#d1d1d1"
     inkscape:document-units="mm"
     inkscape:lockguides="false"
     inkscape:zoom="4.0970529"
     inkscape:cx="33.804787"
     inkscape:cy="74.077638"
     inkscape:window-width="1920"
     inkscape:window-height="1009"
     inkscape:window-x="-8"
     inkscape:window-y="-8"
     inkscape:window-maximized="1"
     inkscape:current-layer="layer1" /><defs
     id="defs1" /><g
     inkscape:label="Capa 1"
     inkscape:groupmode="layer"
     id="layer1"><path
       id="path1"
       style="fill:#000000;fill-opacity:1;stroke:none;stroke-width:0.264583px;stroke-linecap:butt;stroke-linejoin:miter;stroke-opacity:1"
       d="m 17.645517,4.3880263 c -0.169648,0.00325 -0.335824,0.099586 -0.37052,0.3260783 l -0.03256,1.8727539 0.968933,0.064596 -0.0646,-1.1622029 0.774629,0.032039 c 0.35765,0.011142 0.748269,-0.8093845 0,-0.8392253 h -0.871781 c -0.0154,-0.1815745 -0.211842,-0.2977191 -0.40411,-0.2940389 z m -1.210262,3.2323612 -2.260327,0.90382 1.033529,1.7115245 1.678967,-0.6133995 8.491988,-0.032557 c -0.128536,-0.681535 -0.01298,-1.38846 -1.711007,-1.904793 z M 8.0724585,7.9433645 C 7.58829,8.0572435 6.5479205,8.8727765 7.0068905,10.074501 L 9.4930436,9.1381235 C 10.334602,8.0711775 9.3549135,7.9907915 8.0724585,7.9433645 Z m 5.0369015,0.903821 c 0,0 -6.4685533,2.3698435 -6.5866777,2.4220755 -0.8933277,0.395005 -1.2140807,1.335977 -1.0009725,2.356962 l 8.6532182,-3.132109 z m 13.012642,1.6789675 -8.976196,0.03256 -1.48518,0.548803 0.90382,1.711524 9.880534,-1.90531 z M 14.562501,11.365895 4.8431982,14.853021 C 2.9097597,15.561424 3.4444236,17.102869 3.5197648,17.2105 L 15.628069,13.142014 Z m 15.248682,0.258899 c -0.346417,-0.0093 -0.755873,0.01123 -1.235067,0.06408 L 16.35464,13.9492 C 5.0307161,18.408079 -1.1805629,17.113179 4.6013525,23.006012 l -2.0825602,-0.01602 c -0.2612435,0.05404 -0.3948574,0.164823 -0.4542358,0.287838 0.00248,0.0029 0.00588,0.0059 0.00827,0.0088 0.8110974,0.743185 2.2581151,0.171882 2.2846151,0.05374 0.4068092,-0.449245 0.5946677,-0.21489 0.8061523,-0.05374 0.7030786,0.423248 0.7944974,0.331114 1.0485148,0.376204 0.075361,0.004 0.1405464,0.01465 0.197404,0.02997 0.5479368,-0.03857 1.0155195,-0.242045 1.0304281,-0.308509 0.4068088,-0.449244 0.5946679,-0.21489 0.8061523,-0.05374 0.5349964,0.322063 0.7159327,0.345842 0.883667,0.358634 0.00101,-2.38e-4 0.00157,-8.02e-4 0.00258,-0.001 0.7512352,0.05242 1.0948979,-0.23396 1.2076779,-0.346232 0.259528,-0.431277 0.581959,-0.207003 0.727087,-0.02997 0.811099,0.743187 2.258632,0.171883 2.285132,0.05374 0.40681,-0.449247 0.594668,-0.214891 0.806153,-0.05374 0.517774,0.311699 0.703131,0.343736 0.866613,0.357084 0.261913,-0.08213 0.411173,-0.207349 0.477491,-0.273368 0.259523,-0.431272 0.582472,-0.207002 0.727604,-0.02997 0.811094,0.743182 2.258115,0.171882 2.284615,0.05374 0.406805,-0.449242 0.594667,-0.21489 0.806152,-0.05374 0.629017,0.37866 0.769329,0.345416 0.973584,0.366386 0.408034,-0.06593 0.619346,-0.244034 0.7028,-0.327112 0.259522,-0.431277 0.581955,-0.207002 0.727087,-0.02997 0.811093,0.743181 2.258632,0.171882 2.285132,0.05374 0.40681,-0.449247 0.594667,-0.21489 0.806152,-0.05374 0.62387,0.37556 0.766335,0.345928 0.9679,0.365869 0.208698,-0.08045 0.331975,-0.185479 0.390674,-0.243913 0.259521,-0.431277 0.582472,-0.207002 0.727604,-0.02997 0.811092,0.74318 2.258115,0.171882 2.284615,0.05374 0.406803,-0.44924 0.594667,-0.21489 0.806152,-0.05374 0.600911,0.361738 0.755043,0.347035 0.945679,0.363285 0.48778,-0.21493 0.214649,-0.904854 -0.392224,-0.904854 l -4.520654,-0.0646 c 0.01181,-4.279444 8.982004,-11.097242 3.785815,-11.236007 z m -10.579199,3.708301 a 0.77629155,0.77629155 0 0 1 0.77618,0.77618 0.77629155,0.77629155 0 0 1 -0.77618,0.77618 0.77629155,0.77629155 0 0 1 -0.77618,-0.77618 0.77629155,0.77629155 0 0 1 0.77618,-0.77618 z m -2.482019,0.784448 a 0.77629155,0.77629155 0 0 1 0.776696,0.77618 0.77629155,0.77629155 0 0 1 -0.776696,0.77618 0.77629155,0.77629155 0 0 1 -0.77618,-0.77618 0.77629155,0.77629155 0 0 1 0.77618,-0.77618 z m -2.438611,0.766879 a 0.77629155,0.77629155 0 0 1 0.77618,0.77618 0.77629155,0.77629155 0 0 1 -0.77618,0.77618 0.77629155,0.77629155 0 0 1 -0.776697,-0.77618 0.77629155,0.77629155 0 0 1 0.776697,-0.77618 z m -2.487704,0.719852 a 0.77629155,0.77629155 0 0 1 0.77618,0.77618 0.77629155,0.77629155 0 0 1 -0.77618,0.77618 0.77629155,0.77629155 0 0 1 -0.77618,-0.77618 0.77629155,0.77629155 0 0 1 0.77618,-0.77618 z m -2.3688469,0.737423 a 0.77629155,0.77629155 0 0 1 0.7761799,0.77618 0.77629155,0.77629155 0 0 1 -0.7761799,0.77618 0.77629155,0.77629155 0 0 1 -0.7766968,-0.77618 0.77629155,0.77629155 0 0 1 0.7766968,-0.77618 z M 6.937644,19.206761 a 0.77629155,0.77629155 0 0 1 0.77618,0.77618 0.77629155,0.77629155 0 0 1 -0.77618,0.77618 0.77629155,0.77629155 0 0 1 -0.77618,-0.77618 0.77629155,0.77629155 0 0 1 0.77618,-0.77618 z m 3.77703,4.601786 c -0.01588,0.0143 -0.03268,0.02723 -0.04909,0.04082 h 0.09198 c -0.01431,-0.01376 -0.02865,-0.02648 -0.04289,-0.04082 z m 10.657231,0.06304 c -6.42e-4,5.78e-4 -0.0014,9.73e-4 -0.0021,0.0016 h 0.0041 c -6.17e-4,-6.2e-4 -0.0014,-9.28e-4 -0.0021,-0.0016 z M 9.5571224,24.377504 c -0.1175648,-0.0034 -0.243024,0.05988 -0.3565674,0.248564 -0.1127799,0.112272 -0.4569566,0.39865 -1.208195,0.346232 -0.3795006,0.08623 -0.2956556,0.622678 0.045992,0.664042 0.1676259,0.0097 1.0064807,-0.06648 1.5368571,-0.544153 1.1364069,1.144589 2.5004269,0.415163 3.1212559,0.09508 0.574302,0.342875 1.077715,0.545823 1.398881,0.45837 0.538019,-0.0069 0.698675,-0.634615 -0.02842,-0.673344 -0.254017,-0.04509 -0.344918,0.04705 -1.047998,-0.376204 -0.211484,-0.161147 -0.399859,-0.395503 -0.806669,0.05374 -0.0265,0.118139 -1.473516,0.689443 -2.2846147,-0.05374 -0.081637,-0.09958 -0.219365,-0.214206 -0.3705199,-0.218592 z m 11.7729246,0.199988 c -0.117565,-0.0034 -0.243541,0.05988 -0.357084,0.248564 -0.11278,0.112272 -0.45644,0.39865 -1.207678,0.346232 -0.379501,0.08623 -0.295656,0.622678 0.04599,0.664042 0.167625,0.0097 1.005963,-0.06648 1.53634,-0.544153 1.136406,1.144589 2.500427,0.415163 3.121256,0.09509 0.574302,0.342874 1.078231,0.545823 1.399398,0.45837 0.538019,-0.0069 0.698674,-0.634615 -0.02842,-0.673344 -0.254018,-0.04509 -0.345435,0.04704 -1.048515,-0.376205 -0.211484,-0.161146 -0.399342,-0.395503 -0.806152,0.05374 -0.0265,0.118139 -1.473517,0.689443 -2.284615,-0.05374 -0.08164,-0.09958 -0.219365,-0.214205 -0.37052,-0.218591 z M 3.67066,25.804291 c -0.1175649,-0.0034 -0.243024,0.05988 -0.3565674,0.248563 -0.1127799,0.112272 -0.4569567,0.39865 -1.208195,0.346232 -0.3795006,0.08623 -0.2956556,0.622679 0.045992,0.664043 0.1676259,0.0097 1.0064807,-0.06596 1.5368571,-0.543637 1.1364059,1.144589 2.5004272,0.414646 3.1212565,0.09457 0.5743015,0.342875 1.0782312,0.54634 1.3993978,0.458887 0.5380183,-0.0069 0.6981573,-0.635132 -0.028939,-0.673861 -0.2540177,-0.04509 -0.3449187,0.04705 -1.047998,-0.376204 -0.2114848,-0.161147 -0.3998595,-0.395503 -0.8066691,0.05374 -0.0265,0.118139 -1.4735169,0.689443 -2.2846151,-0.05374 -0.081637,-0.09958 -0.2193652,-0.214205 -0.37052,-0.218591 z m 11.772924,0.05839 c -0.117564,-0.0034 -0.24354,0.05988 -0.357084,0.248564 -0.11278,0.112272 -0.45644,0.39865 -1.207678,0.346232 -0.3795,0.08623 -0.295656,0.622678 0.04599,0.664042 0.167626,0.0097 1.005964,-0.06596 1.53634,-0.543636 1.136406,1.144589 2.500428,0.414645 3.121257,0.09457 0.574301,0.342874 1.078231,0.546339 1.399398,0.458886 0.538018,-0.0069 0.698674,-0.635131 -0.02842,-0.67386 -0.254018,-0.04509 -0.345436,0.04704 -1.048515,-0.376205 -0.211485,-0.161147 -0.399343,-0.395503 -0.806152,0.05374 -0.0265,0.118139 -1.473517,0.689443 -2.284615,-0.05374 -0.08164,-0.09958 -0.219366,-0.214205 -0.370521,-0.218591 z m 11.772409,0.464571 c -0.117565,-0.0034 -0.243024,0.05988 -0.356568,0.248564 -0.11278,0.112272 -0.45644,0.39865 -1.207678,0.346232 -0.379501,0.08623 -0.296172,0.622678 0.04547,0.664042 0.167626,0.0097 1.006481,-0.06596 1.536857,-0.543636 1.136406,1.144589 2.500427,0.414646 3.121257,0.09457 0.574301,0.342874 1.078231,0.546339 1.399398,0.458887 0.538018,-0.0069 0.698674,-0.635132 -0.02842,-0.673861 -0.254018,-0.04509 -0.345436,0.04705 -1.048515,-0.376205 -0.211485,-0.161146 -0.399343,-0.395503 -0.806153,0.05374 -0.0265,0.118139 -1.473516,0.689443 -2.284615,-0.05374 -0.08164,-0.09958 -0.219882,-0.214205 -0.371036,-0.218591 z" /></g></svg>
